<?xml version="1.0" standalone="no"?>
<!DOCTYPE svg PUBLIC "-//W3C//DTD SVG 20010904//EN"
 "http://www.w3.org/TR/2001/REC-SVG-20010904/DTD/svg10.dtd">
<svg version="1.0" xmlns="http://www.w3.org/2000/svg"
 width="420.000000pt" height="594.000000pt" viewBox="0 0 420.000000 594.000000"
 preserveAspectRatio="xMidYMid meet">

<g transform="translate(0.000000,594.000000) scale(0.100000,-0.100000)"
fill="#000000" stroke="none">
<path d="M2243 4542 c-30 -4 -71 -55 -78 -95 -4 -18 -5 -134 -3 -257 3 -255 9
-279 80 -330 58 -42 118 -47 181 -16 84 41 101 76 107 215 l5 116 54 7 c109
13 110 71 1 76 -111 5 -140 -35 -140 -198 0 -99 -1 -102 -29 -131 -41 -41 -98
-41 -143 0 l-33 29 0 254 c0 242 1 253 19 256 41 8 46 -19 46 -255 0 -218 0
-223 22 -234 18 -10 24 -8 40 11 17 21 19 43 18 237 -2 218 -7 258 -40 288
-21 19 -74 32 -107 27z"/>
<path d="M1400 4121 c-15 -28 -13 -35 16 -48 23 -11 26 -9 35 14 17 44 -29 75
-51 34z"/>
<path d="M1585 3930 c-3 -6 1 -7 9 -4 18 7 21 14 7 14 -6 0 -13 -4 -16 -10z"/>
<path d="M3066 3914 c-22 -8 -49 -16 -60 -18 -18 -4 -141 -45 -186 -63 -8 -3
-19 -5 -23 -4 -5 1 -5 -4 -1 -10 5 -9 -1 -10 -21 -5 l-29 7 25 -20 c16 -14 18
-19 7 -15 -10 3 -18 2 -18 -4 0 -11 25 -10 36 1 4 4 17 7 29 7 12 0 25 3 29 7
3 4 13 8 21 10 8 2 23 5 33 7 9 3 25 5 35 5 11 1 15 6 11 13 -4 7 -3 8 4 4 6
-4 48 3 92 14 91 23 120 20 120 -13 0 -38 -12 -45 -125 -77 -61 -17 -153 -46
-205 -63 -52 -17 -98 -32 -102 -33 -5 -1 -9 -3 -10 -4 -9 -8 -68 -4 -68 5 0 5
-4 4 -9 -3 -7 -11 -9 -11 -14 1 -3 8 -17 15 -31 15 -30 0 -32 -4 -12 -24 19
-18 27 -18 20 1 -4 8 -1 15 5 15 6 0 11 -8 11 -19 0 -10 6 -23 13 -29 18 -16
83 -22 115 -12 15 4 54 16 87 25 33 10 87 25 120 35 33 10 87 25 120 35 121
34 155 59 155 116 0 89 -76 129 -174 93z"/>
<path d="M1657 3914 c-3 -4 1 -13 9 -21 8 -8 12 -18 9 -23 -3 -4 2 -13 9 -19
8 -7 16 -8 19 -4 6 10 -38 75 -46 67z"/>
<path d="M3388 3899 c-55 -28 -81 -78 -76 -145 9 -109 110 -164 209 -114 87
45 108 165 40 231 -47 45 -117 57 -173 28z m117 -74 c34 -33 33 -78 -1 -110
-33 -30 -63 -32 -98 -4 -20 15 -26 29 -26 57 0 42 6 54 35 70 32 18 64 14 90
-13z"/>
<path d="M2696 3773 c-6 -14 -5 -15 5 -6 7 7 10 15 7 18 -3 3 -9 -2 -12 -12z"/>
<path d="M1987 3613 c-9 -8 -9 -436 -1 -457 3 -9 17 -16 30 -16 23 0 24 3 25
73 2 135 4 160 15 164 7 2 32 -47 60 -117 45 -114 49 -121 73 -118 l26 3 3
215 c2 118 0 225 -3 237 -6 27 -49 32 -59 7 -3 -9 -6 -63 -6 -121 0 -68 -4
-103 -10 -101 -6 2 -28 47 -50 100 -21 54 -44 107 -50 118 -10 19 -40 27 -53
13z"/>
<path d="M3128 3443 c6 -2 18 -2 25 0 6 3 1 5 -13 5 -14 0 -19 -2 -12 -5z"/>
<path d="M3030 3420 c0 -17 27 -23 57 -13 l28 10 -27 5 c-15 3 -25 1 -22 -3 3
-5 -2 -9 -11 -9 -9 0 -13 5 -10 10 3 6 1 10 -4 10 -6 0 -11 -5 -11 -10z"/>
<path d="M2922 3407 l-23 -13 25 -13 c21 -12 27 -11 41 3 9 9 12 16 6 16 -5 0
-12 -4 -16 -10 -3 -5 -12 -7 -21 -3 -12 5 -12 7 3 19 23 17 15 17 -15 1z"/>
<path d="M2822 3382 c-17 -5 -15 -42 3 -48 8 -4 21 -1 29 5 7 6 25 12 40 13
27 2 34 12 16 23 -6 4 -18 1 -27 -7 -9 -7 -14 -8 -10 -2 7 12 -29 24 -51 16z
m18 -12 c0 -5 -5 -10 -11 -10 -5 0 -7 5 -4 10 3 6 8 10 11 10 2 0 4 -4 4 -10z"/>
<path d="M2681 3363 c4 -25 -2 -43 -13 -37 -20 13 0 -58 25 -84 32 -35 91 -62
134 -62 20 0 75 12 121 26 96 29 102 27 124 -40 17 -51 44 -68 63 -42 27 35
-15 135 -64 156 -34 14 -70 9 -174 -22 -43 -13 -80 -18 -99 -14 -39 8 -98 70
-98 102 0 13 -4 24 -10 24 -5 0 -9 -3 -9 -7z"/>
<path d="M3032 2964 c-25 -17 -19 -44 9 -39 27 5 39 14 39 30 0 20 -25 25 -48
9z"/>
<path d="M1670 2878 c-20 -22 -21 -59 -1 -66 6 -2 17 10 24 27 7 17 17 28 21
24 4 -4 4 1 0 11 -6 15 -4 17 7 11 8 -5 11 -4 6 0 -14 16 -38 13 -57 -7z m21
-7 c-7 -5 -11 -14 -7 -20 5 -7 1 -9 -9 -5 -14 6 -14 8 1 25 10 11 20 17 23 14
3 -4 -1 -10 -8 -14z"/>
<path d="M1825 2841 c-30 -14 -62 -47 -130 -136 -49 -65 -102 -132 -116 -149
-14 -17 -43 -56 -63 -86 -33 -48 -37 -61 -33 -98 6 -52 28 -79 79 -92 72 -20
74 -18 331 314 54 70 60 109 16 114 -23 3 -41 -16 -158 -170 -73 -95 -142
-177 -152 -182 -14 -7 -24 -5 -36 7 -20 19 -23 13 150 241 96 126 125 157 157
170 61 24 119 -4 140 -69 14 -42 0 -75 -75 -170 -78 -100 -75 -141 16 -208 46
-34 77 -35 85 -3 5 19 -1 31 -28 55 -18 17 -36 31 -40 31 -20 0 -3 39 46 104
62 81 76 111 76 166 0 136 -137 220 -265 161z"/>
<path d="M1618 2820 c-9 -10 -19 -28 -23 -40 -4 -12 -30 -45 -58 -74 -76 -76
-97 -104 -83 -110 6 -2 3 -5 -8 -5 -12 -1 -16 -6 -13 -15 4 -11 1 -13 -11 -9
-9 3 -14 3 -10 -1 11 -13 -27 -43 -60 -48 -17 -2 -29 -1 -26 4 3 4 -2 8 -10 8
-9 0 -16 -5 -16 -12 0 -6 -9 -3 -20 7 -17 16 -20 16 -15 3 4 -9 13 -19 22 -22
8 -4 13 -13 10 -21 -4 -10 -1 -12 10 -8 10 4 14 2 10 -4 -4 -7 10 -11 38 -11
37 -1 49 4 76 30 17 18 43 49 56 70 14 21 30 38 34 38 5 0 9 7 9 15 0 8 4 15
9 15 5 0 13 10 16 23 4 12 19 32 33 44 18 16 22 23 12 24 -8 0 -4 5 9 10 15 6
21 14 17 25 -3 8 -2 12 3 9 10 -6 24 11 27 33 1 6 -2 12 -8 12 -6 0 -8 7 -4
15 7 20 -5 18 -26 -5z m22 -13 c0 -2 -10 -12 -22 -23 l-23 -19 19 23 c18 21
26 27 26 19z"/>
<path d="M1220 2372 c-87 -59 -99 -176 -24 -242 55 -48 115 -51 181 -11 89 55
86 200 -5 254 -38 22 -118 22 -152 -1z m124 -73 c67 -53 -9 -159 -84 -119 -48
26 -49 99 -2 125 37 20 55 18 86 -6z"/>
</g>
</svg>
